<svg width="36" height="29" viewBox="0 0 36 29" version="1.1" xmlns="http://www.w3.org/2000/svg" xmlns:xlink="http://www.w3.org/1999/xlink"><title>Mask</title><defs><path d="M33.973 12.477a2 2 0 1 1 0 4H6.885l9.202 9.068a1.993 1.993 0 0 1-.005 2.835c-.376.37-.882.576-1.387.576a2.002 2.002 0 0 1-1.43-.574L.596 15.9a1.994 1.994 0 0 1-.002-2.844L13.27.572a2.012 2.012 0 0 1 2.813.003 1.994 1.994 0 0 1 .002 2.844l-9.196 9.058h27.085z" id="path-1"/></defs><g id="Icons/arrow" stroke="none" stroke-width="1" fill="none" fill-rule="evenodd"><g id="Palette/primary"><mask id="mask-2" fill="#fff"><use xlink:href="#path-1"/></mask><use id="Mask" fill="#000" fill-rule="nonzero" xlink:href="#path-1"/></g></g></svg>