<svg width="24" height="24" viewBox="0 0 24 24" version="1.1" xmlns="http://www.w3.org/2000/svg" xmlns:xlink="http://www.w3.org/1999/xlink"><title>Icon / call</title><defs><path d="M1.235 5.182a2.63 2.63 0 0 1 .79-1.69l1.85-1.85c.289-.28.607-.424.915-.424.304 0 .612.145.896.433.333.308.646.632.984.975.17.174.343.348.517.527L8.67 4.635c.309.308.468.622.468.93 0 .308-.16.622-.468.93-.154.154-.308.313-.462.467-.463.468-.895.91-1.373 1.333l-.025.025c-.412.413-.348.806-.248 1.104l.015.04c.383.92.915 1.795 1.745 2.84 1.492 1.84 3.064 3.267 4.794 4.366.214.139.443.248.657.358.199.1.383.194.547.298l.055.03c.164.085.323.124.482.124.398 0 .656-.253.74-.338l1.86-1.86c.29-.288.603-.442.91-.442.379 0 .687.233.881.442l2.999 2.994c.597.597.592 1.243-.015 1.875-.209.224-.428.438-.661.661-.349.338-.712.687-1.04 1.08-.572.616-1.253.905-2.133.905-.085 0-.174-.005-.259-.01-1.631-.105-3.148-.741-4.287-1.283-3.093-1.497-5.808-3.62-8.061-6.316-1.855-2.233-3.103-4.312-3.929-6.54-.512-1.367-.706-2.466-.626-3.466m3.61 10.772a25.46 25.46 0 0 0 8.47 6.634c1.238.587 2.894 1.283 4.739 1.402.114.005.223.01.338.01 1.238 0 2.233-.428 3.043-1.308a.11.11 0 0 0 .02-.025c.289-.348.617-.661.96-.994.234-.224.472-.458.701-.697 1.06-1.104 1.06-2.506-.01-3.575l-2.989-2.989c-.507-.527-1.114-.806-1.75-.806-.637 0-1.248.279-1.77.801l-1.78 1.78a9.82 9.82 0 0 0-.493-.258 6.143 6.143 0 0 1-.547-.299c-1.621-1.03-3.093-2.372-4.5-4.097-.712-.9-1.19-1.656-1.523-2.427a30.34 30.34 0 0 0 1.328-1.298c.15-.154.304-.309.458-.463.537-.537.825-1.158.825-1.79 0-.632-.283-1.253-.825-1.79L8.058 2.283c-.174-.174-.338-.344-.508-.518a27.278 27.278 0 0 0-1.009-1C6.029.265 5.427 0 4.791 0c-.633 0-1.24.264-1.771.77L1.16 2.63A3.822 3.822 0 0 0 .021 5.079C-.073 6.267.146 7.53.713 9.057c.87 2.362 2.183 4.555 4.132 6.898" id="path-1"/><path id="path-3" d="M0 0h24v24H0z"/></defs><g id="Home-V4" stroke="none" stroke-width="1" fill="none" fill-rule="evenodd" transform="translate(-1203 -8219)"><g id="Post-Footer----sticky" transform="translate(0 8115)"><g id="Group-23" transform="translate(1176 81)"><g id="Icons-/-call" transform="translate(27 23)"><g id="Palette/primary"><mask id="mask-2" fill="#fff"><use xlink:href="#path-1"/></mask><use id="Mask" fill="#FFF" xlink:href="#path-1"/><g id="Palette/white"><mask id="mask-4" fill="#fff"><use xlink:href="#path-3"/></mask><use id="Mask" fill="#FFF" fill-rule="evenodd" xlink:href="#path-3"/><g id="Shade/0" opacity=".1"><path id="state" d="M0 0h25v24H0z"/></g></g></g></g></g></g></g></svg>