<svg width="17" height="17" viewBox="0 0 17 17" version="1.1" xmlns="http://www.w3.org/2000/svg" xmlns:xlink="http://www.w3.org/1999/xlink"><title>Icons/comment</title><defs><path d="M13.608 5.108V3.392H3.392v1.716h10.216zm0 2.554V5.946H3.392v1.716h10.216zm0 2.554V8.5H3.392v1.716h10.216zM17 1.676V17l-3.392-3.392H1.675c-.463 0-.858-.17-1.185-.51A1.683 1.683 0 0 1 0 11.891V1.675C0 1.212.163.817.49.49.817.163 1.212 0 1.675 0h13.65c.463 0 .858.163 1.185.49.327.327.49.722.49 1.185z" id="path-1"/><path id="path-3" d="M0 0h17v17H0z"/></defs><g id="Article" stroke="none" stroke-width="1" fill="none" fill-rule="evenodd" transform="translate(-357 -1236)"><g id="Group-3" transform="translate(356 1090)"><g id="Group-11"><g id="Group-5"><g id="Icons/comment" transform="translate(1 146)"><g id="Palette/primary"><mask id="mask-2" fill="#fff"><use xlink:href="#path-1"/></mask><use id="Mask" fill="#FFF" transform="matrix(-1 0 0 1 17 0)" xlink:href="#path-1"/><g id="Palette/white" mask="url(#mask-2)"><mask id="mask-4" fill="#fff"><use xlink:href="#path-3"/></mask><use id="Mask" fill="#FFF" fill-rule="evenodd" xlink:href="#path-3"/><g id="Shade/50" mask="url(#mask-4)" fill="#000" fill-rule="evenodd" opacity=".5"><path id="state" d="M0 0h17v17H0z"/></g></g></g></g></g></g></g></g></svg>