<svg width="17" height="30" viewBox="0 0 17 30" version="1.1" xmlns="http://www.w3.org/2000/svg"><title>icons / icon-mobile</title><g id="TWF_Contact" stroke="none" stroke-width="1" fill="none" fill-rule="evenodd" transform="translate(-948 -644)"><g id="Group-9" transform="translate(322 425)" fill="#1B1B1B"><g id="Group-8" transform="translate(606 107)"><g id="Group-5" transform="translate(13)"><g id="Group-4" transform="translate(7 112)"><path d="M6.203 15.62h.92v-1.38h-.92v1.379zm3.676 0h.919v-1.38h-.92v1.379zm-1.838 0h.919v-1.38h-.92v1.379zm0-12.404h.919V1.838h-.92v1.378zm-.919 24.811H9.88v-1.378H7.122v1.378zM2.068 5.054h12.864V3.676H2.068v1.378zm0 21.135h12.864v-1.378H2.067v1.378zm13.554 1.149a1.15 1.15 0 0 1-1.149 1.148H2.527a1.15 1.15 0 0 1-1.149-1.148V2.527a1.15 1.15 0 0 1 1.149-1.149h11.946a1.15 1.15 0 0 1 1.149 1.149v24.81zM14.473 0H2.527A2.53 2.53 0 0 0 0 2.527v24.81a2.53 2.53 0 0 0 2.527 2.528h11.946A2.53 2.53 0 0 0 17 27.338V2.527A2.53 2.53 0 0 0 14.473 0z" id="icons-/-icon-mobile"/></g></g></g></g></g></svg>