<svg width="30" height="30" viewBox="0 0 30 30" version="1.1" xmlns="http://www.w3.org/2000/svg"><title>Fill 1</title><g id="TWF_Contact" stroke="none" stroke-width="1" fill="none" fill-rule="evenodd" transform="translate(-941 -579)"><g id="Group-9" transform="translate(322 425)" fill="#1B1B1B"><g id="Group-8" transform="translate(606 107)"><g id="Group-5" transform="translate(13)"><g id="Group" transform="translate(0 42)"><path d="M12.035 12.063a2.961 2.961 0 0 1 2.958-2.958 2.961 2.961 0 0 1 2.957 2.958 2.96 2.96 0 0 1-2.957 2.957 2.96 2.96 0 0 1-2.958-2.957zm7.3 0a4.347 4.347 0 0 0-4.342-4.342 4.347 4.347 0 0 0-4.342 4.342 4.346 4.346 0 0 0 4.342 4.341 4.346 4.346 0 0 0 4.341-4.341zm9.281 17.647l-6.014 3V20.905l6.014-2.625v11.43zM1.384 18.281l5.996 2.624v11.804L1.384 29.71V18.28zm12.915 8.141v3.306l-5.535 2.948V20.893l2.024-.943 3.511 6.472zM9.04 12.335a5.958 5.958 0 0 1 5.952-5.951 5.958 5.958 0 0 1 5.951 5.95A5.87 5.87 0 0 1 20.307 15l-5.316 9.796-5.31-9.788a5.878 5.878 0 0 1-.641-2.673zm12.179 8.558v11.782l-5.535-2.956v-3.297l3.513-6.474 2.022.945zm.702-1.2l-2.063-.964 1.675-3.087a7.256 7.256 0 0 0 .794-3.307C22.326 8.29 19.036 5 14.991 5c-4.044 0-7.335 3.29-7.335 7.335a7.25 7.25 0 0 0 .794 3.307l1.676 3.09-2.063.961L0 16.166v14.4l8.082 4.041L15 30.923l6.9 3.684 8.1-4.04v-14.4l-8.08 3.526z" id="Fill-1"/></g></g></g></g></g></svg>