<svg width="18" height="14" viewBox="0 0 18 14" version="1.1" xmlns="http://www.w3.org/2000/svg"><title>Arr Copy 2</title><g id="Button-/-View-All--&gt;" stroke="none" stroke-width="1" fill="none" fill-rule="evenodd" transform="translate(-83 -3)"><g id="Group-9" fill="#FFF" fill-rule="nonzero"><g id="Group"><path d="M99.799 8.98a.959.959 0 1 1 0 1.918H86.815l4.411 4.346a.955.955 0 0 1-.667 1.635.96.96 0 0 1-.686-.275l-6.071-5.983a.956.956 0 0 1-.001-1.363l6.074-5.984a.964.964 0 0 1 1.349.001.956.956 0 0 1 0 1.364L86.817 8.98h12.982z" id="Arr-Copy-2" transform="rotate(-180 92.137 9.94)"/></g></g></g></svg>