<?xml version="1.0" encoding="UTF-8" standalone="no"?>
<svg width="17px" height="17px" viewBox="0 0 17 17" version="1.1" xmlns="http://www.w3.org/2000/svg" xmlns:xlink="http://www.w3.org/1999/xlink">
    <!-- Generator: Sketch 48.2 (47327) - http://www.bohemiancoding.com/sketch -->
    <title>Icons/comment</title>
    <desc>Created with Sketch.</desc>
    <defs>
        <path d="M13.6081731,5.10817308 L13.6081731,3.39182692 L3.39182692,3.39182692 L3.39182692,5.10817308 L13.6081731,5.10817308 Z M13.6081731,7.66225962 L13.6081731,5.94591346 L3.39182692,5.94591346 L3.39182692,7.66225962 L13.6081731,7.66225962 Z M13.6081731,10.2163462 L13.6081731,8.5 L3.39182692,8.5 L3.39182692,10.2163462 L13.6081731,10.2163462 Z M17,1.67548077 L17,17 L13.6081731,13.6081731 L1.67548077,13.6081731 C1.21233743,13.6081731 0.817309327,13.4379023 0.490384615,13.0973558 C0.163459904,12.7568092 0,12.3549703 0,11.8918269 L0,1.67548077 C0,1.21233743 0.163459904,0.817309327 0.490384615,0.490384615 C0.817309327,0.163459904 1.21233743,0 1.67548077,0 L15.3245192,0 C15.7876626,0 16.1826907,0.163459904 16.5096154,0.490384615 C16.8365401,0.817309327 17,1.21233743 17,1.67548077 Z" id="path-1"></path>
        <rect id="path-3" x="0" y="0" width="17" height="17"></rect>
    </defs>
    <g id="Article" stroke="none" stroke-width="1" fill="none" fill-rule="evenodd" transform="translate(-357.000000, -1236.000000)">
        <g id="Group-3" transform="translate(356.000000, 1090.000000)">
            <g id="Group-11">
                <g id="Group-5">
                    <g id="Icons/comment" transform="translate(1.000000, 146.000000)">
                        <g id="Palette/primary">
                            <mask id="mask-2" fill="white">
                                <use xlink:href="#path-1"></use>
                            </mask>
                            <use id="Mask" fill="#FFFFFF" transform="translate(8.500000, 8.500000) scale(-1, 1) translate(-8.500000, -8.500000) " xlink:href="#path-1"></use>
                            <g id="Palette/white" mask="url(#mask-2)">
                                <mask id="mask-4" fill="white">
                                    <use xlink:href="#path-3"></use>
                                </mask>
                                <use id="Mask" fill="#FFFFFF" fill-rule="evenodd" xlink:href="#path-3"></use>
                                <g id="Shade/50" mask="url(#mask-4)" fill="#000000" fill-rule="evenodd" opacity="0.5">
                                    <rect id="state" x="0" y="0" width="17" height="17"></rect>
                                </g>
                            </g>
                        </g>
                    </g>
                </g>
            </g>
        </g>
    </g>
</svg>