<?xml version="1.0" encoding="UTF-8"?>
<svg width="65px" height="65px" viewBox="0 0 65 65" version="1.1" xmlns="http://www.w3.org/2000/svg" xmlns:xlink="http://www.w3.org/1999/xlink">
    <!-- Generator: Sketch 48.2 (47327) - http://www.bohemiancoding.com/sketch -->
    <title>Page 1</title>
    <desc>Created with Sketch.</desc>
    <defs></defs>
    <g id="TWF_404" stroke="none" stroke-width="1" fill="none" fill-rule="evenodd" transform="translate(-768.000000, -205.000000)">
        <path d="M805,233.5 L805,229.5 C805,228.122 806.121,227 807.5,227 C808.879,227 810,228.122 810,229.5 L810,233.5 C810,234.878 808.879,236 807.5,236 C806.121,236 805,234.878 805,233.5 M791,233.5 L791,229.5 C791,228.122 792.121,227 793.5,227 C794.879,227 796,228.122 796,229.5 L796,233.5 C796,234.878 794.879,236 793.5,236 C792.121,236 791,234.878 791,233.5 M806.745,249.132 L805.515,251.868 C803.111,250.787 799.888,250.788 797.486,251.868 L796.256,249.132 C799.442,247.697 803.561,247.698 806.745,249.132 M822.056,246.774 L820.944,249.561 C815.102,247.231 808.378,246 801.501,246 C794.624,246 787.899,247.231 782.056,249.561 L780.944,246.774 C787.139,244.305 794.246,243 801.5,243 C808.755,243 815.862,244.305 822.056,246.774 M800.5,267 C784.233,267 771,253.766 771,237.5 C771,221.234 784.233,208 800.5,208 C816.767,208 830,221.234 830,237.5 C830,253.766 816.767,267 800.5,267 M800.5,205 C782.579,205 768,219.58 768,237.5 C768,255.42 782.579,270 800.5,270 C818.421,270 833,255.42 833,237.5 C833,219.58 818.421,205 800.5,205" id="Page-1" fill="#FAC627"></path>
    </g>
</svg>