<?xml version="1.0" encoding="UTF-8"?>
<svg width="65px" height="65px" viewBox="0 0 65 65" version="1.1" xmlns="http://www.w3.org/2000/svg" xmlns:xlink="http://www.w3.org/1999/xlink">
    <!-- Generator: Sketch 48.2 (47327) - http://www.bohemiancoding.com/sketch -->
    <title>Fill 1</title>
    <desc>Created with Sketch.</desc>
    <defs></defs>
    <g id="TWF_Thankyou" stroke="none" stroke-width="1" fill="none" fill-rule="evenodd" transform="translate(-768.000000, -205.000000)">
        <path d="M786.901,215.741 C786.832,215.56 786.792,215.361 786.792,215.161 C786.792,214.771 786.951,214.381 787.231,214.1 C787.301,214.031 787.381,213.97 787.462,213.921 C787.542,213.861 787.631,213.821 787.721,213.781 C787.811,213.741 787.901,213.711 788.002,213.691 C788.191,213.661 788.391,213.651 788.582,213.691 C788.681,213.711 788.771,213.741 788.861,213.781 C788.951,213.821 789.042,213.861 789.122,213.921 C789.201,213.97 789.281,214.031 789.351,214.1 C789.631,214.381 789.792,214.771 789.792,215.161 C789.792,215.361 789.752,215.56 789.681,215.741 C789.601,215.921 789.491,216.081 789.351,216.22 C789.071,216.511 788.691,216.661 788.292,216.661 C788.091,216.661 787.901,216.631 787.712,216.551 C787.531,216.481 787.372,216.371 787.231,216.22 C787.091,216.081 786.981,215.921 786.901,215.741 Z M776.375,237.5 C776.375,238.328 775.703,239 774.875,239 C774.047,239 773.375,238.328 773.375,237.5 C773.375,229.749 776.702,222.35 782.505,217.203 C783.123,216.653 784.071,216.711 784.622,217.33 C785.172,217.949 785.115,218.897 784.495,219.447 C779.335,224.026 776.375,230.605 776.375,237.5 Z M792.056,213.25 C791.831,212.453 792.294,211.624 793.091,211.398 C795.49,210.72 797.982,210.375 800.5,210.375 C801.328,210.375 802,211.047 802,211.875 C802,212.703 801.328,213.375 800.5,213.375 C798.258,213.375 796.041,213.681 793.908,214.285 C793.772,214.323 793.634,214.342 793.499,214.342 C792.844,214.342 792.244,213.911 792.056,213.25 Z M800.5,267 C784.233,267 771,253.766 771,237.5 C771,221.233 784.233,208 800.5,208 C816.766,208 830,221.233 830,237.5 C830,253.766 816.766,267 800.5,267 Z M800.5,205 C782.579,205 768,219.579 768,237.5 C768,255.421 782.579,270 800.5,270 C818.421,270 833,255.421 833,237.5 C833,219.579 818.421,205 800.5,205 Z M795.683,248.25 L786.944,239.426 L789.054,237.314 L794.62,242.88 C795.206,243.466 796.155,243.466 796.741,242.88 L812.173,227.447 L814.284,229.558 L795.683,248.25 Z M813.234,224.265 C812.953,223.984 812.571,223.826 812.173,223.826 C811.776,223.826 811.394,223.984 811.113,224.265 L795.68,239.698 L790.115,234.133 C789.552,233.57 788.556,233.57 787.994,234.133 L783.767,238.36 C783.183,238.944 783.181,239.889 783.762,240.476 L794.562,251.382 C794.765,251.587 795.035,251.714 795.32,251.768 C795.454,251.806 795.592,251.826 795.733,251.826 L795.735,251.826 C796.133,251.826 796.515,251.667 796.797,251.384 L806.313,241.875 C806.315,241.873 806.318,241.87 806.321,241.868 L817.466,230.609 C818.047,230.022 818.045,229.077 817.461,228.493 L813.234,224.265 Z" id="Fill-1" fill="#FAC627"></path>
    </g>
</svg>