<?xml version="1.0" encoding="UTF-8"?>
<svg width="30px" height="30px" viewBox="0 0 30 30" version="1.1" xmlns="http://www.w3.org/2000/svg" xmlns:xlink="http://www.w3.org/1999/xlink">
    <!-- Generator: Sketch 48.2 (47327) - http://www.bohemiancoding.com/sketch -->
    <title>Fill 1</title>
    <desc>Created with Sketch.</desc>
    <defs></defs>
    <g id="TWF_Contact" stroke="none" stroke-width="1" fill="none" fill-rule="evenodd" transform="translate(-941.000000, -579.000000)">
        <g id="Group-9" transform="translate(322.000000, 425.000000)" fill="#1B1B1B">
            <g id="Group-8" transform="translate(606.000000, 107.000000)">
                <g id="Group-5" transform="translate(13.000000, 0.000000)">
                    <g id="Group" transform="translate(0.000000, 42.000000)">
                        <path d="M12.0352404,12.0628392 C12.0352404,10.4318178 13.3618291,9.10476791 14.9928504,9.10476791 C16.6238718,9.10476791 17.9504605,10.4318178 17.9504605,12.0628392 C17.9504605,13.6938606 16.6238718,15.0204493 14.9928504,15.0204493 C13.3618291,15.0204493 12.0352404,13.6938606 12.0352404,12.0628392 Z M19.3342456,12.0628392 C19.3342456,9.66889097 17.3867987,7.72098279 14.9928504,7.72098279 C12.5993635,7.72098279 10.6514553,9.66889097 10.6514553,12.0628392 C10.6514553,14.4567875 12.5993635,16.4042344 14.9928504,16.4042344 C17.3867987,16.4042344 19.3342456,14.4567875 19.3342456,12.0628392 Z M28.6162149,29.7102508 L22.6018235,32.7102969 L22.6018235,20.9052261 L28.6162149,18.2801857 L28.6162149,29.7102508 Z M1.38378511,18.2811083 L7.38018727,20.9047648 L7.38018727,32.7089131 L1.38378511,29.710712 L1.38378511,18.2811083 Z M14.2991128,26.4223773 L14.2991128,29.7277787 L8.76397239,32.6761635 L8.76397239,20.8932333 L10.7875275,19.9499531 L14.2991128,26.4223773 Z M9.03980689,12.3349836 C9.03980689,9.05356786 11.7095896,6.38378511 14.9910054,6.38378511 C18.2724212,6.38378511 20.9422039,9.05356786 20.9422039,12.3345224 C20.9422039,13.2704224 20.7249496,14.1726503 20.3065853,14.9996925 L14.9910054,24.7959686 L9.68049939,15.0084565 C9.2552161,14.1666539 9.03980689,13.2671935 9.03980689,12.3349836 Z M21.2180384,20.892772 L21.2180384,32.6747797 L15.682898,29.7185535 L15.682898,26.4223773 L19.1958671,19.9476468 L21.2180384,20.892772 Z M21.9196175,19.6930303 L19.8568551,18.7294546 L21.5316964,15.64223 C22.0584572,14.6025462 22.325989,13.4895217 22.325989,12.3345224 C22.325989,8.29017974 19.035348,5 14.9910054,5 C10.9466628,5 7.65602177,8.29017974 7.65602177,12.3349836 C7.65602177,13.4895217 7.9230923,14.6025462 8.45031443,15.64223 L10.1260782,18.7317609 L8.06331586,19.6930303 L0,16.1657621 L0,30.5663525 L8.08222759,34.607005 L14.9997694,30.9229078 L21.8993219,34.607005 L30,30.5663525 L30,16.1662233 L21.9196175,19.6930303 Z" id="Fill-1"></path>
                    </g>
                </g>
            </g>
        </g>
    </g>
</svg>