<?xml version="1.0" encoding="UTF-8" standalone="no"?>
<svg width="18px" height="14px" viewBox="0 0 18 14" version="1.1" xmlns="http://www.w3.org/2000/svg" xmlns:xlink="http://www.w3.org/1999/xlink">
    <!-- Generator: Sketch 48.1 (47250) - http://www.bohemiancoding.com/sketch -->
    <title>Arr Copy 2</title>
    <desc>Created with Sketch.</desc>
    <defs></defs>
    <g id="Button-/-View-All--&gt;" stroke="none" stroke-width="1" fill="none" fill-rule="evenodd" transform="translate(-83.000000, -3.000000)">
        <g id="Group-9" fill="#FFFFFF" fill-rule="nonzero">
            <g id="Group">
                <path d="M99.7990448,8.98041741 C100.328481,8.98041741 100.757673,9.40961 100.757673,9.93904588 C100.757673,10.4684818 100.328481,10.8976743 99.7990448,10.8976743 L86.8152712,10.8976743 L91.2262195,15.2441396 C91.407029,15.4235034 91.5087292,15.6676424 91.5087292,15.9223254 C91.5087292,16.1770085 91.407029,16.4211474 91.2238722,16.6028292 C91.0436953,16.7799328 90.8011332,16.8791318 90.5586509,16.8789686 C90.3030698,16.8824852 90.0566681,16.7837864 89.8730281,16.6036584 L83.8015071,10.621275 C83.6184636,10.4415589 83.5153465,10.195806 83.5153465,9.93928553 C83.5153465,9.68276503 83.6184636,9.43701214 83.8006576,9.25813156 L89.8753492,3.27407386 C90.2498315,2.90841227 90.8476873,2.90841227 91.2235797,3.27545447 C91.4066232,3.45517051 91.5097403,3.7009234 91.5097403,3.95744391 C91.5097403,4.21396442 91.4066232,4.45971731 91.2244223,4.63860466 L86.8167377,8.98041741 L99.7990448,8.98041741 Z" id="Arr-Copy-2" transform="translate(92.136510, 9.939530) rotate(-180.000000) translate(-92.136510, -9.939530) "></path>
            </g>
        </g>
    </g>
</svg>