<?xml version="1.0" encoding="UTF-8" standalone="no"?>
<svg width="24px" height="24px" viewBox="0 0 24 24" version="1.1" xmlns="http://www.w3.org/2000/svg" xmlns:xlink="http://www.w3.org/1999/xlink">
    <!-- Generator: Sketch 48.1 (47250) - http://www.bohemiancoding.com/sketch -->
    <title>Icon / call</title>
    <desc>Created with Sketch.</desc>
    <defs>
        <path d="M1.23468427,5.18194194 C1.29436114,4.52052325 1.54798786,3.96851216 2.02540286,3.49109716 L3.87538597,1.64111405 C4.1638242,1.36262197 4.48210086,1.21840286 4.79043138,1.21840286 C5.09378882,1.21840286 5.40211934,1.36262197 5.6855845,1.6510602 C6.01878038,1.95939072 6.33208397,2.28264045 6.67025293,2.62578248 C6.83933741,2.79984003 7.01339496,2.97389758 7.18745251,3.15292821 L8.66942823,4.63490393 C8.97775875,4.94323445 9.13689708,5.25653804 9.13689708,5.56486856 C9.13689708,5.87319907 8.97775875,6.18650267 8.66942823,6.49483318 C8.51526297,6.64899844 8.36109771,6.80813678 8.20693245,6.96230204 C7.74443667,7.42977089 7.31177933,7.87237437 6.83436433,8.29508557 C6.82441819,8.30503171 6.81944511,8.31000479 6.80949897,8.31995093 C6.39673392,8.73271598 6.46138387,9.12558874 6.56084532,9.42397311 C6.5658184,9.43889233 6.57079147,9.44883848 6.57576454,9.4637577 C6.95869116,10.3837762 7.49080995,11.259037 8.32131313,12.3033823 C9.81323499,14.1434193 11.384726,15.5706415 13.1153554,16.6697403 C13.3292472,16.8089863 13.5579589,16.9183939 13.771801,17.0278015 C13.9707239,17.127263 14.1547276,17.2217514 14.318839,17.3261859 C14.3387313,17.3360823 14.3536505,17.3460782 14.3735926,17.3560244 C14.5376542,17.4405666 14.6968423,17.4803512 14.8559309,17.4803512 C15.2537767,17.4803512 15.5123765,17.2267245 15.5969188,17.1421822 L17.4568977,15.282253 C17.7452862,14.9938147 18.0585898,14.8396495 18.3669203,14.8396495 C18.7448739,14.8396495 19.0532044,15.0733342 19.247204,15.282253 L22.2459172,18.2760428 C22.8426859,18.8728116 22.8377129,19.5193111 22.2310477,20.1508913 C22.0221289,20.3746796 21.8033137,20.5885217 21.5695793,20.81231 C21.2214642,21.150479 20.8584299,21.4985941 20.5302071,21.8914668 C19.9583037,22.5080781 19.2769927,22.7965661 18.3967588,22.7965661 C18.3122165,22.7965661 18.2227012,22.791593 18.138159,22.7866199 C16.5069911,22.6821357 14.9902039,22.0456321 13.8514199,21.5035671 C10.7581188,20.0066722 8.04282104,17.8831204 5.79001903,15.1877646 C3.93506284,12.9548549 2.68682155,10.8761104 1.86129145,8.64817374 C1.34906494,7.2805787 1.1551151,6.18152959 1.23468427,5.18194194 M4.84513518,15.9536178 C7.21231787,18.7832963 10.0618886,21.0112329 13.3142783,22.587697 C14.5525734,23.1745196 16.2086067,23.8707498 18.0536665,23.9901036 C18.1679974,23.9950767 18.2774548,24 18.3917857,24 C19.6300809,24 20.6246954,23.5723655 21.435356,22.6921316 C21.4402794,22.6871585 21.4502255,22.6772123 21.4551986,22.6672662 C21.7436368,22.3191511 22.0718596,22.0058475 22.4150017,21.6726516 C22.6487361,21.4488633 22.8874436,21.2150792 23.116205,20.9764214 C24.1754695,19.8723495 24.1754695,18.4699927 23.1062588,17.400782 L20.1174917,14.4119652 C19.6101886,13.8848195 19.0034737,13.6062777 18.3669203,13.6062777 C17.7304167,13.6062777 17.1186791,13.8848195 16.5965064,14.4069921 L14.8161463,16.1873522 C14.6520349,16.0928141 14.4829504,16.0083216 14.3238618,15.9287524 C14.1249389,15.829291 13.9408855,15.7348026 13.7768238,15.6303681 C12.1555523,14.6008923 10.6835227,13.2581626 9.27614312,11.532556 C8.5649937,10.6324298 8.0875787,9.87652274 7.75438282,9.10569645 C8.22185167,8.68298525 8.65948208,8.24038177 9.08219328,7.80772443 C9.23138546,7.65355917 9.38555072,7.49939391 9.53971598,7.34522865 C10.0768079,6.80813678 10.3652461,6.18650267 10.3652461,5.55492241 C10.3652461,4.92334215 10.0817809,4.30170804 9.53971598,3.76461617 L8.05774026,2.28264045 C7.88368271,2.1085829 7.71957131,1.93949842 7.55048683,1.76544087 C7.22226402,1.42727192 6.87912199,1.07915682 6.54095303,0.765853224 C6.02872653,0.263572863 5.42698471,0 4.79043138,0 C4.15885112,0 3.55213623,0.263572863 3.02001743,0.770826297 L1.16008817,2.63075555 C0.483750262,3.30709347 0.100823651,4.12765049 0.0212544844,5.07750741 C-0.0732339004,6.26607183 0.145581306,7.52923234 0.712511615,9.05596572 C1.58279937,11.4181753 2.89569061,13.6113005 4.84513518,15.9536178" id="path-1"></path>
        <rect id="path-3" x="0" y="0" width="24" height="24"></rect>
    </defs>
    <g id="Home-V4" stroke="none" stroke-width="1" fill="none" fill-rule="evenodd" transform="translate(-1203.000000, -8219.000000)">
        <g id="Post-Footer----sticky" transform="translate(0.000000, 8115.000000)">
            <g id="Group-23" transform="translate(1176.000000, 81.000000)">
                <g id="Icons-/-call" transform="translate(27.000000, 23.000000)">
                    <g id="Palette/primary">
                        <mask id="mask-2" fill="white">
                            <use xlink:href="#path-1"></use>
                        </mask>
                        <use id="Mask" fill="#FFFFFF" xlink:href="#path-1"></use>
                        <g id="Palette/white">
                            <mask id="mask-4" fill="white">
                                <use xlink:href="#path-3"></use>
                            </mask>
                            <use id="Mask" fill="#FFFFFF" fill-rule="evenodd" xlink:href="#path-3"></use>
                            <g id="Shade/0" opacity="0.100000001">
                                <rect id="state" x="0" y="0" width="25" height="24"></rect>
                            </g>
                        </g>
                    </g>
                </g>
            </g>
        </g>
    </g>
</svg>