<?xml version="1.0" encoding="UTF-8"?>
<svg width="17px" height="30px" viewBox="0 0 17 30" version="1.1" xmlns="http://www.w3.org/2000/svg" xmlns:xlink="http://www.w3.org/1999/xlink">
    <!-- Generator: Sketch 48.2 (47327) - http://www.bohemiancoding.com/sketch -->
    <title>icons / icon-mobile</title>
    <desc>Created with Sketch.</desc>
    <defs></defs>
    <g id="TWF_Contact" stroke="none" stroke-width="1" fill="none" fill-rule="evenodd" transform="translate(-948.000000, -644.000000)">
        <g id="Group-9" transform="translate(322.000000, 425.000000)" fill="#1B1B1B">
            <g id="Group-8" transform="translate(606.000000, 107.000000)">
                <g id="Group-5" transform="translate(13.000000, 0.000000)">
                    <g id="Group-4" transform="translate(7.000000, 112.000000)">
                        <path d="M6.20316216,15.6197838 L7.12208108,15.6197838 L7.12208108,14.2414054 L6.20316216,14.2414054 L6.20316216,15.6197838 Z M9.87883784,15.6197838 L10.7977568,15.6197838 L10.7977568,14.2414054 L9.87883784,14.2414054 L9.87883784,15.6197838 Z M8.041,15.6197838 L8.95991892,15.6197838 L8.95991892,14.2414054 L8.041,14.2414054 L8.041,15.6197838 Z M8.041,3.21621622 L8.95991892,3.21621622 L8.95991892,1.83783784 L8.041,1.83783784 L8.041,3.21621622 Z M7.12208108,28.027027 L9.87883784,28.027027 L9.87883784,26.6486486 L7.12208108,26.6486486 L7.12208108,28.027027 Z M2.06756757,5.05405405 L14.9324324,5.05405405 L14.9324324,3.67567568 L2.06756757,3.67567568 L2.06756757,5.05405405 Z M2.06710811,26.1891892 L14.9324324,26.1891892 L14.9324324,24.8108108 L2.06710811,24.8108108 L2.06710811,26.1891892 Z M15.6216216,27.3378378 C15.6216216,27.9714324 15.1065676,28.4864865 14.472973,28.4864865 L2.52702703,28.4864865 C1.89343243,28.4864865 1.37837838,27.9714324 1.37837838,27.3378378 L1.37837838,2.52702703 C1.37837838,1.89343243 1.89343243,1.37837838 2.52702703,1.37837838 L14.472973,1.37837838 C15.1065676,1.37837838 15.6216216,1.89343243 15.6216216,2.52702703 L15.6216216,27.3378378 Z M14.472973,0 L2.52702703,0 C1.13394595,0 0,1.13394595 0,2.52702703 L0,27.3378378 C0,28.7309189 1.13394595,29.8648649 2.52702703,29.8648649 L14.472973,29.8648649 C15.8660541,29.8648649 17,28.7309189 17,27.3378378 L17,2.52702703 C17,1.13394595 15.8660541,0 14.472973,0 Z" id="icons-/-icon-mobile"></path>
                    </g>
                </g>
            </g>
        </g>
    </g>
</svg>